<?xml version="1.0" standalone="no"?>
<!DOCTYPE svg PUBLIC "-//W3C//DTD SVG 20010904//EN"
 "http://www.w3.org/TR/2001/REC-SVG-20010904/DTD/svg10.dtd">
<svg version="1.0" xmlns="http://www.w3.org/2000/svg"
 width="243.000000pt" height="205.000000pt" viewBox="0 0 243.000000 205.000000"
 preserveAspectRatio="xMidYMid meet">

<g transform="translate(0.000000,205.000000) scale(0.100000,-0.100000)"
fill="#fff" stroke="none">
<path d="M1060 1874 c-14 -2 -68 -12 -120 -20 -52 -9 -142 -32 -198 -50 -98
-32 -308 -133 -361 -173 l-24 -18 27 -164 c50 -296 111 -493 214 -692 96 -184
245 -362 410 -490 l62 -48 0 415 0 416 -65 0 -65 0 0 -285 c0 -171 -4 -285 -9
-285 -13 0 -111 117 -159 188 -99 147 -175 324 -227 526 -36 140 -76 356 -69
368 3 4 33 23 67 42 232 130 546 194 825 168 159 -15 329 -58 458 -114 140
-62 185 -93 180 -121 -3 -12 -15 -74 -26 -137 -52 -286 -129 -502 -244 -687
-55 -89 -171 -233 -187 -233 -5 0 -9 124 -9 285 l0 285 -65 0 -65 0 0 -410 c0
-226 3 -410 8 -410 8 0 61 42 146 115 79 68 207 222 267 322 128 212 208 447
264 778 14 81 25 152 25 158 0 29 -227 150 -372 198 -160 54 -264 70 -473 74
-104 2 -201 2 -215 -1z"/>
<path d="M720 1420 l0 -70 520 0 520 0 0 70 0 70 -520 0 -520 0 0 -70z"/>
<path d="M840 1200 l0 -70 400 0 400 0 0 70 0 70 -400 0 -400 0 0 -70z"/>
<path d="M1170 602 l0 -449 35 -19 c34 -18 36 -18 70 0 l35 19 0 449 0 448
-70 0 -70 0 0 -448z"/>
</g>
</svg>
